<?xml version="1.0" encoding="utf-8"?>
<svg xmlns="http://www.w3.org/2000/svg" style="margin: auto; background: none; display: block; shape-rendering: auto;" width="286" height="250" preserveAspectRatio="xMidYMid">
<style type="text/css">
  text {
    text-anchor: middle; font-size: 79px; opacity: 0;
  }
</style>
<g style="transform-origin:143px 125px;transform:scale(1)">
<g transform="translate(143,125)">
  <g transform="translate(-5,0)"><g class="path" style="transform: rotate(0deg); transform-origin: -106.1px -5.3522px; animation: 1s linear -0.5775s infinite normal forwards running spin-6b2444a2-6cf0-4d2c-a319-a4c2ba069816;"><path d="M6.95 0L6.95-53.88L13.59-53.88L13.59-6.32L38.08-6.32L38.08 0L6.95 0" fill="#b96d37" stroke="none" stroke-width="none" transform="translate(-128.61495971679688,21.587801971435546)" style="fill: rgb(185, 109, 55);"></path></g><g class="path" style="transform: rotate(0deg); transform-origin: -66.995px 1.8378px; animation: 1s linear -0.495s infinite normal forwards running spin-6b2444a2-6cf0-4d2c-a319-a4c2ba069816;"><path d="M49.14-19.67L49.14-19.67L49.14-19.67Q49.14-12.01 52.57-8.26L52.57-8.26L52.57-8.26Q56.01-4.50 61.86-4.50L61.86-4.50L61.86-4.50Q67.62-4.50 70.86-8.22L70.86-8.22L70.86-8.22Q74.10-11.93 74.10-19.36L74.10-19.36L74.10-19.36Q74.10-27.25 70.67-31.13L70.67-31.13L70.67-31.13Q67.23-35.00 61.30-35.00L61.30-35.00L61.30-35.00Q55.38-35.00 52.26-31.17L52.26-31.17L52.26-31.17Q49.14-27.33 49.14-19.67zM42.42-19.75L42.42-19.75L42.42-19.75Q42.42-25.75 44.32-29.74L44.32-29.74L44.32-29.74Q46.22-33.73 49.14-36.14L49.14-36.14L49.14-36.14Q52.06-38.55 55.42-39.54L55.42-39.54L55.42-39.54Q58.78-40.53 61.78-40.53L61.78-40.53L61.78-40.53Q64.62-40.53 67.98-39.62L67.98-39.62L67.98-39.62Q71.34-38.71 74.18-36.38L74.18-36.38L74.18-36.38Q77.03-34.05 78.92-30.14L78.92-30.14L78.92-30.14Q80.82-26.23 80.82-20.22L80.82-20.22L80.82-20.22Q80.82-13.98 78.88-9.88L78.88-9.88L78.88-9.88Q76.95-5.77 74.02-3.36L74.02-3.36L74.02-3.36Q71.10-0.95 67.70 0.04L67.70 0.04L67.70 0.04Q64.31 1.03 61.38 1.03L61.38 1.03L61.38 1.03Q58.38 1.03 55.06 0.08L55.06 0.08L55.06 0.08Q51.75-0.87 48.94-3.20L48.94-3.20L48.94-3.20Q46.14-5.53 44.28-9.56L44.28-9.56L44.28-9.56Q42.42-13.59 42.42-19.75" fill="#b96d37" stroke="none" stroke-width="none" transform="translate(-128.61495971679688,21.587801971435546)" style="fill: rgb(185, 109, 55);"></path></g><g class="path" style="transform: rotate(0deg); transform-origin: -25.835px 1.8378px; animation: 1s linear -0.4125s infinite normal forwards running spin-6b2444a2-6cf0-4d2c-a319-a4c2ba069816;"><path d="M112.10-9.24L112.10-18.25L112.10-18.25Q110.52-18.17 109.10-18.09L109.10-18.09L109.10-18.09Q107.68-18.01 106.29-17.89L106.29-17.89L106.29-17.89Q104.91-17.77 103.81-17.62L103.81-17.62L103.81-17.62Q98.12-16.91 95.75-15.13L95.75-15.13L95.75-15.13Q93.38-13.35 93.38-10.03L93.38-10.03L93.38-10.03Q93.38-7.27 95.08-5.89L95.08-5.89L95.08-5.89Q96.78-4.50 99.54-4.50L99.54-4.50L99.54-4.50Q103.33-4.50 106.29-5.81L106.29-5.81L106.29-5.81Q109.26-7.11 112.10-9.24L112.10-9.24zM112.81 0.63L112.02-3.71L112.02-3.71Q108.31-1.58 105.11-0.28L105.11-0.28L105.11-0.28Q101.91 1.03 98.20 1.03L98.20 1.03L98.20 1.03Q92.90 1.03 89.78-1.54L89.78-1.54L89.78-1.54Q86.66-4.11 86.66-10.03L86.66-10.03L86.66-10.03Q86.66-13.11 88.24-15.40L88.24-15.40L88.24-15.40Q89.82-17.70 92.39-19.24L92.39-19.24L92.39-19.24Q94.96-20.78 98.20-21.65L98.20-21.65L98.20-21.65Q101.44-22.52 104.83-22.75L104.83-22.75L104.83-22.75Q106.26-22.91 108.55-23.03L108.55-23.03L108.55-23.03Q110.84-23.15 112.10-23.23L112.10-23.23L112.10-23.23Q112.10-25.99 111.94-28.16L111.94-28.16L111.94-28.16Q111.79-30.34 111.00-31.88L111.00-31.88L111.00-31.88Q110.21-33.42 108.66-34.21L108.66-34.21L108.66-34.21Q107.12-35.00 104.28-35.00L104.28-35.00L104.28-35.00Q101.99-35.00 99.86-34.72L99.86-34.72L99.86-34.72Q97.72-34.44 96.06-34.13L96.06-34.13L96.06-34.13Q94.09-33.73 92.43-33.26L92.43-33.26L91.17-38.71L91.17-38.71Q93.14-39.18 95.43-39.58L95.43-39.58L95.43-39.58Q97.41-39.97 100.01-40.25L100.01-40.25L100.01-40.25Q102.62-40.53 105.62-40.53L105.62-40.53L105.62-40.53Q109.65-40.53 112.14-39.34L112.14-39.34L112.14-39.34Q114.63-38.16 116.01-36.14L116.01-36.14L116.01-36.14Q117.39-34.13 117.91-31.56L117.91-31.56L117.91-31.56Q118.42-28.99 118.42-26.15L118.42-26.15L118.42-7.19L118.42-7.19Q118.42-6.08 118.46-4.86L118.46-4.86L118.46-4.86Q118.50-3.63 118.62-2.45L118.62-2.45L118.62-2.45Q118.74-1.26 118.90 0L118.90 0L112.81 0.63" fill="#b96d37" stroke="none" stroke-width="none" transform="translate(-128.61495971679688,21.587801971435546)" style="fill: rgb(185, 109, 55);"></path></g><g class="path" style="transform: rotate(0deg); transform-origin: 15.68px -7.8372px; animation: 1s linear -0.33s infinite normal forwards running spin-6b2444a2-6cf0-4d2c-a319-a4c2ba069816;"><path d="M154.37-8.69L154.37-33.81L154.37-33.81Q151.52-34.60 149.94-34.80L149.94-34.80L149.94-34.80Q148.36-35.00 146.70-35.00L146.70-35.00L146.70-35.00Q143.39-35.00 141.02-33.81L141.02-33.81L141.02-33.81Q138.65-32.63 137.10-30.53L137.10-30.53L137.10-30.53Q135.56-28.44 134.85-25.71L134.85-25.71L134.85-25.71Q134.14-22.99 134.14-19.91L134.14-19.91L134.14-19.91Q134.14-17.14 134.73-14.38L134.73-14.38L134.73-14.38Q135.33-11.61 136.59-9.40L136.59-9.40L136.59-9.40Q137.86-7.19 139.67-5.85L139.67-5.85L139.67-5.85Q141.49-4.50 144.02-4.50L144.02-4.50L144.02-4.50Q145.76-4.50 147.61-5.13L147.61-5.13L147.61-5.13Q149.47-5.77 151.05-6.60L151.05-6.60L151.05-6.60Q152.63-7.43 154.37-8.69L154.37-8.69zM155.08 0.63L154.45-3.16L154.45-3.16Q152.63-1.90 150.93-1.07L150.93-1.07L150.93-1.07Q149.23-0.24 147.22 0.40L147.22 0.40L147.22 0.40Q145.20 1.03 143.31 1.03L143.31 1.03L143.31 1.03Q135.88 1.03 131.65-4.23L131.65-4.23L131.65-4.23Q127.43-9.48 127.43-19.59L127.43-19.59L127.43-19.59Q127.43-25.60 129.36-29.63L129.36-29.63L129.36-29.63Q131.30-33.65 134.22-36.06L134.22-36.06L134.22-36.06Q137.14-38.47 140.50-39.50L140.50-39.50L140.50-39.50Q143.86-40.53 146.70-40.53L146.70-40.53L146.70-40.53Q148.13-40.53 149.71-40.33L149.71-40.33L149.71-40.33Q151.29-40.13 154.37-39.34L154.37-39.34L154.37-59.17L160.69-59.88L160.69-7.19L160.69-7.19Q160.69-6.08 160.73-4.86L160.73-4.86L160.73-4.86Q160.77-3.63 160.88-2.45L160.88-2.45L160.88-2.45Q161.00-1.26 161.16 0L161.16 0L155.08 0.63" fill="#b96d37" stroke="none" stroke-width="none" transform="translate(-128.61495971679688,21.587801971435546)" style="fill: rgb(185, 109, 55);"></path></g><g class="path" style="transform: rotate(0deg); transform-origin: 46.685px 1.3228px; animation: 1s linear -0.2475s infinite normal forwards running spin-6b2444a2-6cf0-4d2c-a319-a4c2ba069816;"><path d="M172.14 0L172.14-39.82L178.46-40.53L178.46 0L172.14 0" fill="#b96d37" stroke="none" stroke-width="none" transform="translate(-128.61495971679688,21.587801971435546)" style="fill: rgb(185, 109, 55);"></path></g><g class="path" style="transform: rotate(0deg); transform-origin: 46.88px -29.5272px; animation: 1s linear -0.165s infinite normal forwards running spin-6b2444a2-6cf0-4d2c-a319-a4c2ba069816;"><path d="M171.11-51.11L171.11-51.11L171.11-51.11Q171.11-52.93 172.34-54.15L172.34-54.15L172.34-54.15Q173.56-55.38 175.38-55.38L175.38-55.38L175.38-55.38Q177.28-55.38 178.58-54.15L178.58-54.15L178.58-54.15Q179.88-52.93 179.88-51.11L179.88-51.11L179.88-51.11Q179.88-49.30 178.58-48.07L178.58-48.07L178.58-48.07Q177.28-46.85 175.38-46.85L175.38-46.85L175.38-46.85Q173.56-46.85 172.34-48.07L172.34-48.07L172.34-48.07Q171.11-49.30 171.11-51.11" fill="#b96d37" stroke="none" stroke-width="none" transform="translate(-128.61495971679688,21.587801971435546)" style="fill: rgb(185, 109, 55);"></path></g><g class="path" style="transform: rotate(0deg); transform-origin: 77.1px 1.3228px; animation: 1s linear -0.0825s infinite normal forwards running spin-6b2444a2-6cf0-4d2c-a319-a4c2ba069816;"><path d="M189.92 0L189.92-31.84L189.92-31.84Q190.00-33.50 189.52-39.03L189.52-39.03L195.37-39.82L196.24-34.76L196.24-34.76Q198.61-36.34 200.94-37.52L200.94-37.52L200.94-37.52Q203.27-38.71 205.72-39.62L205.72-39.62L205.72-39.62Q208.17-40.53 210.46-40.53L210.46-40.53L210.46-40.53Q213.70-40.53 215.87-39.78L215.87-39.78L215.87-39.78Q218.04-39.03 219.38-37.29L219.38-37.29L219.38-37.29Q220.73-35.55 221.32-32.71L221.32-32.71L221.32-32.71Q221.91-29.86 221.91-25.60L221.91-25.60L221.91 0L215.59 0L215.59-24.89L215.59-24.89Q215.59-27.25 215.51-29.11L215.51-29.11L215.51-29.11Q215.43-30.97 214.84-32.27L214.84-32.27L214.84-32.27Q214.25-33.58 213.02-34.29L213.02-34.29L213.02-34.29Q211.80-35.00 209.59-35.00L209.59-35.00L209.59-35.00Q207.53-35.00 205.24-34.09L205.24-34.09L205.24-34.09Q202.95-33.18 200.74-32.00L200.74-32.00L200.74-32.00Q198.53-30.81 196.24-29.23L196.24-29.23L196.24 0L189.92 0" fill="#b96d37" stroke="none" stroke-width="none" transform="translate(-128.61495971679688,21.587801971435546)" style="fill: rgb(185, 109, 55);"></path></g><g class="path" style="transform: rotate(0deg); transform-origin: 118.935px 10.9228px; animation: 1s linear 0s infinite normal forwards running spin-6b2444a2-6cf0-4d2c-a319-a4c2ba069816;"><path d="M264.18-38.79L264.18 3.79L264.18 3.79Q264.18 6.71 263.54 9.48L263.54 9.48L263.54 9.48Q262.91 12.25 261.13 14.42L261.13 14.42L261.13 14.42Q259.36 16.59 256.16 17.89L256.16 17.89L256.16 17.89Q252.96 19.20 247.74 19.20L247.74 19.20L247.74 19.20Q244.43 19.12 241.98 18.80L241.98 18.80L241.98 18.80Q239.53 18.49 237.32 17.89L237.32 17.89L237.32 17.89Q235.10 17.30 233.29 16.51L233.29 16.51L234.95 10.98L234.95 10.98Q238.03 12.32 241.23 13.04L241.23 13.04L241.23 13.04Q244.43 13.75 246.95 13.75L246.95 13.75L246.95 13.75Q249.72 13.75 251.77 13.19L251.77 13.19L251.77 13.19Q253.83 12.64 255.21 11.34L255.21 11.34L255.21 11.34Q256.59 10.03 257.26 7.90L257.26 7.90L257.26 7.90Q257.94 5.77 257.94 2.61L257.94 2.61L257.94-3.16L257.94-3.16Q256.28-2.05 254.50-1.15L254.50-1.15L254.50-1.15Q252.72-0.24 250.71 0.40L250.71 0.40L250.71 0.40Q248.69 1.03 246.80 1.03L246.80 1.03L246.80 1.03Q239.45 1.03 235.18-4.15L235.18-4.15L235.18-4.15Q230.92-9.32 230.92-19.59L230.92-19.59L230.92-19.59Q230.92-25.52 232.77-29.51L232.77-29.51L232.77-29.51Q234.63-33.50 237.47-35.95L237.47-35.95L237.47-35.95Q240.32-38.39 243.72-39.46L243.72-39.46L243.72-39.46Q247.11-40.53 250.19-40.53L250.19-40.53L250.19-40.53Q254.22-40.53 257.58-39.86L257.58-39.86L257.58-39.86Q260.94-39.18 264.18-38.79L264.18-38.79zM247.51-4.50L247.51-4.50L247.51-4.50Q249.25-4.50 251.06-5.13L251.06-5.13L251.06-5.13Q252.88-5.77 254.58-6.64L254.58-6.64L254.58-6.64Q256.28-7.50 257.94-8.69L257.94-8.69L257.94-33.89L257.94-33.89Q256.99-34.13 255.72-34.44L255.72-34.44L255.72-34.44Q254.62-34.60 253.20-34.80L253.20-34.80L253.20-34.80Q251.77-35.00 250.19-35.00L250.19-35.00L250.19-35.00Q246.88-35.00 244.51-33.81L244.51-33.81L244.51-33.81Q242.14-32.63 240.59-30.57L240.59-30.57L240.59-30.57Q239.05-28.52 238.34-25.75L238.34-25.75L238.34-25.75Q237.63-22.99 237.63-19.91L237.63-19.91L237.63-19.91Q237.63-17.14 238.22-14.38L238.22-14.38L238.22-14.38Q238.82-11.61 240.08-9.40L240.08-9.40L240.08-9.40Q241.35-7.19 243.16-5.85L243.16-5.85L243.16-5.85Q244.98-4.50 247.51-4.50" fill="#b96d37" stroke="none" stroke-width="none" transform="translate(-128.61495971679688,21.587801971435546)" style="fill: rgb(185, 109, 55);"></path></g></g>
</g>
</g>
<style id="spin-6b2444a2-6cf0-4d2c-a319-a4c2ba069816" data-anikit="">@keyframes spin-6b2444a2-6cf0-4d2c-a319-a4c2ba069816
{
  0% {
    animation-timing-function: cubic-bezier(0.5856,0.0703,0.4143,0.9297);
    transform: rotate(0deg);
  }
  100% {
    transform: rotate(360deg);
  }
}</style></svg>